<?xml version="1.0" encoding="UTF-8"?>
<svg xmlns="http://www.w3.org/2000/svg" viewBox="0 0 2718.69 2718.69" shape-rendering="geometricPrecision" text-rendering="geometricPrecision" image-rendering="optimizeQuality">
  <defs>
    <linearGradient id="logo_gradient" gradientUnits="userSpaceOnUse" x1="1419.82" y1="1407.92" x2="1423.68" y2="929.79">
      <stop offset="0" stop-color="#35B88A"/>
      <stop offset="0.74" stop-color="#31B2B0"/>
      <stop offset="1" stop-color="#2CABD6"/>
    </linearGradient>
  </defs>
  
  <rect fill="#FEFEFE" width="2718.69" height="2718.69"/>
  
  <g fill-rule="evenodd" clip-rule="evenodd">
    <path fill="url(#logo_gradient)" d="M1384.41 1346.06c0-4.81 24.9 6.18 37.78 4.1 53.53-8.67 116.23-170.67 47.91-148.43l-103.85 33.81c-0.89.29-2.86-1.15-5.24-3.75 28.69-.84 25.71-39.88 19.03-46.33-3.09-2.99-7.77-5.24-14.5-6.35 2.13-.35 4.45-.59 7-.7 33.18-1.45 87.9-11.01 157.59-66.32 2.07-1.65 4.98-1.04 7.23-1.2 2.25-.16 4.66-.24 7.23-.24 8.67 0 15.58 2.09 20.72 6.26 5.14 4.18 7.71 9.8 7.71 16.87 0 242.75-188.61 353.39-188.61 212.28z"/>
    <path fill="url(#logo_gradient)" d="M1135.19 1033.51c3.37-10.72 8.91-18.41 16.6-23.07 7.69-4.65 16.14-5.53 25.33-2.64 10.42 3.28 18.13 11.43 23.12 24.45 5 13.02 5.32 26.43 0.99 40.22-2.99 9.5-8.18 16.37-15.58 20.61-7.4 4.24-15.39 5.01-23.97 2.31-11.34-3.57-19.63-11.48-24.86-23.74-5.24-12.26-5.78-24.97-1.64-38.15z"/>
    <path fill="url(#logo_gradient)" d="M1584.7 1068.13c-2.54 10.95-7.47 19.04-14.79 24.27-7.31 5.23-15.67 6.75-25.06 4.57-10.64-2.47-18.95-10.01-24.93-22.61-5.98-12.6-7.33-25.94-4.06-40.03 2.25-9.7 6.9-16.95 13.95-21.74 7.05-4.79 14.96-6.17 23.72-4.14 11.58 2.69 20.45 9.94 26.61 21.76 6.16 11.82 7.68 24.46 4.55 37.91z"/>
    <path fill="url(#logo_gradient)" d="M1218.11 1219.48c1.52-15.57 10.35-24.05 29.69-17.75l84.22 27.42c45.35 14.76 42.56-36.23 34.84-43.68-4.07-3.93-10.88-6.58-21.5-7.05-33.18-1.45-87.9-11.01-157.58-66.32-7.2-5.71-20.25-.3-26.55 4.82-5.14 4.18-7.71 9.8-7.71 16.87 0 92.1 2.95 180.73 2.95 278.37l58.75 0 0-.39c.11.13.22.27.33.39 1.71-58.85-2.68-138.69 2.57-192.67z"/>
  </g>

  <text x="308.9" y="1708.1" fill="#35B88A" font-family="'Montserrat', sans-serif" font-weight="900" font-size="278.55">GO JobMatch</text>
</svg>